<mxfile host="Electron" agent="Mozilla/5.0 (Windows NT 10.0; Win64; x64) AppleWebKit/537.36 (KHTML, like Gecko) draw.io/24.7.8 Chrome/128.0.6613.36 Electron/32.0.1 Safari/537.36" version="24.7.8">
  <diagram name="Page-1" id="gdYsprZCVtb4z1ZikIHO">
    <mxGraphModel dx="1050" dy="621" grid="1" gridSize="10" guides="1" tooltips="1" connect="1" arrows="1" fold="1" page="1" pageScale="1" pageWidth="850" pageHeight="1100" math="0" shadow="0">
      <root>
        <mxCell id="0" />
        <mxCell id="1" parent="0" />
        <mxCell id="piIFDiPW13_Zl1LAGOmQ-1" value="&lt;font style=&quot;font-size: 30px;&quot;&gt;Full Stack&amp;nbsp; CICD DevOps Project&lt;/font&gt;" style="rounded=0;whiteSpace=wrap;html=1;" vertex="1" parent="1">
          <mxGeometry x="180" y="40" width="520" height="60" as="geometry" />
        </mxCell>
        <mxCell id="piIFDiPW13_Zl1LAGOmQ-4" style="edgeStyle=orthogonalEdgeStyle;rounded=0;orthogonalLoop=1;jettySize=auto;html=1;entryX=0;entryY=0.5;entryDx=0;entryDy=0;" edge="1" parent="1" source="piIFDiPW13_Zl1LAGOmQ-2" target="piIFDiPW13_Zl1LAGOmQ-3">
          <mxGeometry relative="1" as="geometry" />
        </mxCell>
        <mxCell id="piIFDiPW13_Zl1LAGOmQ-2" value="GITHUB" style="rounded=1;whiteSpace=wrap;html=1;" vertex="1" parent="1">
          <mxGeometry x="170" y="170" width="140" height="60" as="geometry" />
        </mxCell>
        <mxCell id="piIFDiPW13_Zl1LAGOmQ-10" style="edgeStyle=orthogonalEdgeStyle;rounded=0;orthogonalLoop=1;jettySize=auto;html=1;" edge="1" parent="1" source="piIFDiPW13_Zl1LAGOmQ-3" target="piIFDiPW13_Zl1LAGOmQ-5">
          <mxGeometry relative="1" as="geometry" />
        </mxCell>
        <mxCell id="piIFDiPW13_Zl1LAGOmQ-3" value="JENKINS" style="rounded=1;whiteSpace=wrap;html=1;" vertex="1" parent="1">
          <mxGeometry x="380" y="170" width="140" height="60" as="geometry" />
        </mxCell>
        <mxCell id="piIFDiPW13_Zl1LAGOmQ-16" style="edgeStyle=orthogonalEdgeStyle;rounded=0;orthogonalLoop=1;jettySize=auto;html=1;exitX=0.5;exitY=1;exitDx=0;exitDy=0;entryX=0.5;entryY=0;entryDx=0;entryDy=0;" edge="1" parent="1" source="piIFDiPW13_Zl1LAGOmQ-5" target="piIFDiPW13_Zl1LAGOmQ-11">
          <mxGeometry relative="1" as="geometry" />
        </mxCell>
        <mxCell id="piIFDiPW13_Zl1LAGOmQ-5" value="SONARQUBE" style="rounded=1;whiteSpace=wrap;html=1;" vertex="1" parent="1">
          <mxGeometry x="590" y="170" width="140" height="60" as="geometry" />
        </mxCell>
        <mxCell id="piIFDiPW13_Zl1LAGOmQ-17" style="edgeStyle=orthogonalEdgeStyle;rounded=0;orthogonalLoop=1;jettySize=auto;html=1;exitX=0.5;exitY=1;exitDx=0;exitDy=0;entryX=0.5;entryY=0;entryDx=0;entryDy=0;" edge="1" parent="1" source="piIFDiPW13_Zl1LAGOmQ-11" target="piIFDiPW13_Zl1LAGOmQ-12">
          <mxGeometry relative="1" as="geometry" />
        </mxCell>
        <mxCell id="piIFDiPW13_Zl1LAGOmQ-11" value="DEPENDENCY CHECK" style="rounded=1;whiteSpace=wrap;html=1;" vertex="1" parent="1">
          <mxGeometry x="590" y="280" width="140" height="60" as="geometry" />
        </mxCell>
        <mxCell id="piIFDiPW13_Zl1LAGOmQ-18" style="edgeStyle=orthogonalEdgeStyle;rounded=0;orthogonalLoop=1;jettySize=auto;html=1;exitX=0.5;exitY=1;exitDx=0;exitDy=0;entryX=0.5;entryY=0;entryDx=0;entryDy=0;" edge="1" parent="1" source="piIFDiPW13_Zl1LAGOmQ-12" target="piIFDiPW13_Zl1LAGOmQ-13">
          <mxGeometry relative="1" as="geometry" />
        </mxCell>
        <mxCell id="piIFDiPW13_Zl1LAGOmQ-12" value="DOCKER" style="rounded=1;whiteSpace=wrap;html=1;" vertex="1" parent="1">
          <mxGeometry x="590" y="380" width="140" height="60" as="geometry" />
        </mxCell>
        <mxCell id="piIFDiPW13_Zl1LAGOmQ-19" style="edgeStyle=orthogonalEdgeStyle;rounded=0;orthogonalLoop=1;jettySize=auto;html=1;entryX=1;entryY=0.5;entryDx=0;entryDy=0;" edge="1" parent="1" source="piIFDiPW13_Zl1LAGOmQ-13" target="piIFDiPW13_Zl1LAGOmQ-14">
          <mxGeometry relative="1" as="geometry" />
        </mxCell>
        <mxCell id="piIFDiPW13_Zl1LAGOmQ-13" value="TRIVY" style="rounded=1;whiteSpace=wrap;html=1;" vertex="1" parent="1">
          <mxGeometry x="590" y="490" width="140" height="60" as="geometry" />
        </mxCell>
        <mxCell id="piIFDiPW13_Zl1LAGOmQ-20" style="edgeStyle=orthogonalEdgeStyle;rounded=0;orthogonalLoop=1;jettySize=auto;html=1;" edge="1" parent="1" source="piIFDiPW13_Zl1LAGOmQ-14" target="piIFDiPW13_Zl1LAGOmQ-15">
          <mxGeometry relative="1" as="geometry" />
        </mxCell>
        <mxCell id="piIFDiPW13_Zl1LAGOmQ-14" value="DOCKER COMPOSE" style="rounded=1;whiteSpace=wrap;html=1;" vertex="1" parent="1">
          <mxGeometry x="380" y="490" width="140" height="60" as="geometry" />
        </mxCell>
        <mxCell id="piIFDiPW13_Zl1LAGOmQ-15" value="OUTPUT" style="rounded=1;whiteSpace=wrap;html=1;" vertex="1" parent="1">
          <mxGeometry x="170" y="490" width="140" height="60" as="geometry" />
        </mxCell>
      </root>
    </mxGraphModel>
  </diagram>
</mxfile>
